<?xml version="1.0" encoding="UTF-8" standalone="no"?>
<!DOCTYPE svg PUBLIC "-//W3C//DTD SVG 1.1//EN"
 "http://www.w3.org/Graphics/SVG/1.1/DTD/svg11.dtd">
<!-- Generated by graphviz version 2.43.0 (0)
 -->
<!-- Title: interview Pages: 1 -->
<svg width="371pt" height="621pt"
 viewBox="0.00 0.00 371.00 621.00" xmlns="http://www.w3.org/2000/svg" xmlns:xlink="http://www.w3.org/1999/xlink">
<g id="graph0" class="graph" transform="scale(1 1) rotate(0) translate(4 617)">
<title>interview</title>
<!-- start -->
<g id="node1" class="node">
<title>start</title>
<path fill="#e8eef7" stroke="#7a869a" d="M351,-613C351,-613 12,-613 12,-613 6,-613 0,-607 0,-601 0,-601 0,-589 0,-589 0,-583 6,-577 12,-577 12,-577 351,-577 351,-577 357,-577 363,-583 363,-589 363,-589 363,-601 363,-601 363,-607 357,-613 351,-613"/>
<text text-anchor="start" x="116.5" y="-598.2" font-family="Helvetica,sans-Serif" font-weight="bold" font-size="11.00" fill="#1f2933">What already exists?</text>
<text text-anchor="start" x="16" y="-587.2" font-family="Helvetica,sans-Serif" font-size="11.00" fill="#1f2933">an OSPREY deployment · a facility, no OSPREY · nothing yet</text>
</g>
<!-- discover -->
<g id="node2" class="node">
<title>discover</title>
<path fill="#f5f7fa" stroke="#7a869a" d="M324.5,-554C324.5,-554 38.5,-554 38.5,-554 32.5,-554 26.5,-548 26.5,-542 26.5,-542 26.5,-519 26.5,-519 26.5,-513 32.5,-507 38.5,-507 38.5,-507 324.5,-507 324.5,-507 330.5,-507 336.5,-513 336.5,-519 336.5,-519 336.5,-542 336.5,-542 336.5,-548 330.5,-554 324.5,-554"/>
<text text-anchor="start" x="150" y="-539.2" font-family="Helvetica,sans-Serif" font-weight="bold" font-size="11.00" fill="#1f2933">DISCOVER</text>
<text text-anchor="start" x="42.5" y="-528.2" font-family="Helvetica,sans-Serif" font-size="11.00" fill="#1f2933">Reads your repository, files and command output.</text>
<text text-anchor="start" x="139" y="-517.2" font-family="Helvetica,sans-Serif" font-size="11.00" fill="#1f2933">Writes nothing.</text>
</g>
<!-- start&#45;&gt;discover -->
<g id="edge1" class="edge">
<title>start&#45;&gt;discover</title>
<path fill="none" stroke="#7a869a" d="M181.5,-576.92C181.5,-572.48 181.5,-567.55 181.5,-562.62"/>
<polygon fill="#7a869a" stroke="#7a869a" points="184.3,-562.42 181.5,-554.42 178.7,-562.42 184.3,-562.42"/>
</g>
<!-- card1 -->
<g id="node3" class="node">
<title>card1</title>
<polygon fill="#fff8e1" stroke="#7a869a" points="288.5,-484 68.5,-484 68.5,-446 294.5,-446 294.5,-478 288.5,-484"/>
<polyline fill="none" stroke="#7a869a" points="288.5,-484 288.5,-478 "/>
<polyline fill="none" stroke="#7a869a" points="294.5,-478 288.5,-478 "/>
<text text-anchor="middle" x="181.5" y="-468.2" font-family="Helvetica,sans-Serif" font-size="11.00" fill="#1f2933">Status&#45;quo card: what is there now</text>
<text text-anchor="middle" x="181.5" y="-456.2" font-family="Helvetica,sans-Serif" font-size="11.00" fill="#1f2933">you confirm, or say what is wrong</text>
</g>
<!-- discover&#45;&gt;card1 -->
<g id="edge2" class="edge">
<title>discover&#45;&gt;card1</title>
<path fill="none" stroke="#7a869a" d="M181.5,-506.93C181.5,-502.3 181.5,-497.38 181.5,-492.62"/>
<polygon fill="#7a869a" stroke="#7a869a" points="184.3,-492.31 181.5,-484.31 178.7,-492.31 184.3,-492.31"/>
</g>
<!-- map -->
<g id="node4" class="node">
<title>map</title>
<path fill="#f5f7fa" stroke="#7a869a" d="M351,-423C351,-423 12,-423 12,-423 6,-423 0,-417 0,-411 0,-411 0,-377 0,-377 0,-371 6,-365 12,-365 12,-365 351,-365 351,-365 357,-365 363,-371 363,-377 363,-377 363,-411 363,-411 363,-417 357,-423 351,-423"/>
<text text-anchor="start" x="167.5" y="-408.2" font-family="Helvetica,sans-Serif" font-weight="bold" font-size="11.00" fill="#1f2933">MAP</text>
<text text-anchor="start" x="65.5" y="-397.2" font-family="Helvetica,sans-Serif" font-size="11.00" fill="#1f2933">One verdict per thing found: carry it over,</text>
<text text-anchor="start" x="58.5" y="-386.2" font-family="Helvetica,sans-Serif" font-size="11.00" fill="#1f2933">use what OSPREY has, drop it, or flag a gap.</text>
<text text-anchor="start" x="16" y="-375.2" font-family="Helvetica,sans-Serif" font-size="11.00" fill="#1f2933">Then asks for facility name, prefix, timezone, project name.</text>
</g>
<!-- card1&#45;&gt;map -->
<g id="edge3" class="edge">
<title>card1&#45;&gt;map</title>
<path fill="none" stroke="#7a869a" d="M181.5,-445.87C181.5,-441.42 181.5,-436.5 181.5,-431.52"/>
<polygon fill="#7a869a" stroke="#7a869a" points="184.3,-431.16 181.5,-423.16 178.7,-431.16 184.3,-431.16"/>
</g>
<!-- card2 -->
<g id="node5" class="node">
<title>card2</title>
<polygon fill="#fff8e1" stroke="#7a869a" points="291,-342 66,-342 66,-304 297,-304 297,-336 291,-342"/>
<polyline fill="none" stroke="#7a869a" points="291,-342 291,-336 "/>
<polyline fill="none" stroke="#7a869a" points="297,-336 291,-336 "/>
<text text-anchor="middle" x="181.5" y="-326.2" font-family="Helvetica,sans-Serif" font-size="11.00" fill="#1f2933">Porting&#45;map card: what carries over</text>
<text text-anchor="middle" x="181.5" y="-314.2" font-family="Helvetica,sans-Serif" font-size="11.00" fill="#1f2933">you confirm, or say what is wrong</text>
</g>
<!-- map&#45;&gt;card2 -->
<g id="edge4" class="edge">
<title>map&#45;&gt;card2</title>
<path fill="none" stroke="#7a869a" d="M181.5,-364.94C181.5,-360.18 181.5,-355.25 181.5,-350.54"/>
<polygon fill="#7a869a" stroke="#7a869a" points="184.3,-350.35 181.5,-342.35 178.7,-350.35 184.3,-350.35"/>
</g>
<!-- build -->
<g id="node6" class="node">
<title>build</title>
<path fill="#f5f7fa" stroke="#7a869a" d="M318,-281C318,-281 45,-281 45,-281 39,-281 33,-275 33,-269 33,-269 33,-213 33,-213 33,-207 39,-201 45,-201 45,-201 318,-201 318,-201 324,-201 330,-207 330,-213 330,-213 330,-269 330,-269 330,-275 324,-281 318,-281"/>
<text text-anchor="start" x="163" y="-266.2" font-family="Helvetica,sans-Serif" font-weight="bold" font-size="11.00" fill="#1f2933">BUILD</text>
<text text-anchor="start" x="49" y="-255.2" font-family="Helvetica,sans-Serif" font-size="11.00" fill="#1f2933">Creates the project from the hello&#45;world preset,</text>
<text text-anchor="start" x="67" y="-244.2" font-family="Helvetica,sans-Serif" font-size="11.00" fill="#1f2933">then adds one confirmed piece at a time:</text>
<text text-anchor="start" x="53" y="-233.2" font-family="Helvetica,sans-Serif" font-size="11.00" fill="#1f2933">AI provider · control system · writes on or off ·</text>
<text text-anchor="start" x="65" y="-222.2" font-family="Helvetica,sans-Serif" font-size="11.00" fill="#1f2933">users and roles · facility knowledge stubs.</text>
<text text-anchor="start" x="100" y="-211.2" font-family="Helvetica,sans-Serif" font-size="11.00" fill="#1f2933">Validates after every change.</text>
</g>
<!-- card2&#45;&gt;build -->
<g id="edge5" class="edge">
<title>card2&#45;&gt;build</title>
<path fill="none" stroke="#7a869a" d="M181.5,-303.85C181.5,-299.43 181.5,-294.5 181.5,-289.4"/>
<polygon fill="#7a869a" stroke="#7a869a" points="184.3,-289.31 181.5,-281.31 178.7,-289.31 184.3,-289.31"/>
</g>
<!-- card3 -->
<g id="node7" class="node">
<title>card3</title>
<polygon fill="#fff8e1" stroke="#7a869a" points="335.5,-178 21.5,-178 21.5,-140 341.5,-140 341.5,-172 335.5,-178"/>
<polyline fill="none" stroke="#7a869a" points="335.5,-178 335.5,-172 "/>
<polyline fill="none" stroke="#7a869a" points="341.5,-172 335.5,-172 "/>
<text text-anchor="middle" x="181.5" y="-162.2" font-family="Helvetica,sans-Serif" font-size="11.00" fill="#1f2933">Gap card: what the full example has and you do not</text>
<text text-anchor="middle" x="181.5" y="-150.2" font-family="Helvetica,sans-Serif" font-size="11.00" fill="#1f2933">close or skip each row, with a reason</text>
</g>
<!-- build&#45;&gt;card3 -->
<g id="edge6" class="edge">
<title>build&#45;&gt;card3</title>
<path fill="none" stroke="#7a869a" d="M181.5,-200.94C181.5,-195.98 181.5,-191 181.5,-186.31"/>
<polygon fill="#7a869a" stroke="#7a869a" points="184.3,-186.24 181.5,-178.24 178.7,-186.24 184.3,-186.24"/>
</g>
<!-- close -->
<g id="node8" class="node">
<title>close</title>
<path fill="#f5f7fa" stroke="#7a869a" d="M301.5,-117C301.5,-117 61.5,-117 61.5,-117 55.5,-117 49.5,-111 49.5,-105 49.5,-105 49.5,-82 49.5,-82 49.5,-76 55.5,-70 61.5,-70 61.5,-70 301.5,-70 301.5,-70 307.5,-70 313.5,-76 313.5,-82 313.5,-82 313.5,-105 313.5,-105 313.5,-111 307.5,-117 301.5,-117"/>
<text text-anchor="start" x="161.5" y="-102.2" font-family="Helvetica,sans-Serif" font-weight="bold" font-size="11.00" fill="#1f2933">CLOSE</text>
<text text-anchor="start" x="65.5" y="-91.2" font-family="Helvetica,sans-Serif" font-size="11.00" fill="#1f2933">A second agent argues against the setup.</text>
<text text-anchor="start" x="116" y="-80.2" font-family="Helvetica,sans-Serif" font-size="11.00" fill="#1f2933">Final validate and build.</text>
</g>
<!-- card3&#45;&gt;close -->
<g id="edge7" class="edge">
<title>card3&#45;&gt;close</title>
<path fill="none" stroke="#7a869a" d="M181.5,-139.97C181.5,-135.46 181.5,-130.5 181.5,-125.55"/>
<polygon fill="#7a869a" stroke="#7a869a" points="184.3,-125.34 181.5,-117.34 178.7,-125.34 184.3,-125.34"/>
</g>
<!-- done -->
<g id="node9" class="node">
<title>done</title>
<path fill="#e6f4ea" stroke="#7a869a" d="M303,-47C303,-47 60,-47 60,-47 54,-47 48,-41 48,-35 48,-35 48,-12 48,-12 48,-6 54,0 60,0 60,0 303,0 303,0 309,0 315,-6 315,-12 315,-12 315,-35 315,-35 315,-41 309,-47 303,-47"/>
<text text-anchor="start" x="110.5" y="-32.2" font-family="Helvetica,sans-Serif" font-weight="bold" font-size="11.00" fill="#1f2933">Deployment repository</text>
<text text-anchor="start" x="93.5" y="-21.2" font-family="Helvetica,sans-Serif" font-size="11.00" fill="#1f2933">profile.yml holds every decision</text>
<text text-anchor="start" x="64" y="-10.2" font-family="Helvetica,sans-Serif" font-size="11.00" fill="#1f2933">INTERVIEW.md holds every confirmed card</text>
</g>
<!-- close&#45;&gt;done -->
<g id="edge8" class="edge">
<title>close&#45;&gt;done</title>
<path fill="none" stroke="#7a869a" d="M181.5,-69.86C181.5,-65.2 181.5,-60.23 181.5,-55.34"/>
<polygon fill="#7a869a" stroke="#7a869a" points="184.3,-55.28 181.5,-47.28 178.7,-55.28 184.3,-55.28"/>
</g>
</g>
</svg>
